<mxfile host="app.diagrams.net" modified="2023-06-29T10:11:25.824Z" agent="Mozilla/5.0 (Macintosh; Intel Mac OS X 10_15_7) AppleWebKit/537.36 (KHTML, like Gecko) Chrome/114.0.0.0 Safari/537.36" etag="zj8hbCMMs3on6cTVp8ao" version="21.5.2" type="device">
  <diagram name="Page-1" id="6q2dVRL2lyj4YezYWu6W">
    <mxGraphModel dx="1735" dy="991" grid="1" gridSize="10" guides="1" tooltips="1" connect="1" arrows="1" fold="1" page="1" pageScale="1" pageWidth="1100" pageHeight="850" math="0" shadow="0">
      <root>
        <mxCell id="0" />
        <mxCell id="1" parent="0" />
        <mxCell id="VcpDIT1148hxlzCa1aZ3-4" value="" style="shape=image;verticalLabelPosition=bottom;labelBackgroundColor=default;verticalAlign=top;aspect=fixed;imageAspect=0;image=https://miro.medium.com/v2/resize:fit:401/0*8qgeGxrtC7ynPl8I.png;" vertex="1" parent="1">
          <mxGeometry x="100" y="132" width="287.38" height="184.18" as="geometry" />
        </mxCell>
        <mxCell id="VcpDIT1148hxlzCa1aZ3-5" value="" style="shape=image;verticalLabelPosition=bottom;labelBackgroundColor=default;verticalAlign=top;aspect=fixed;imageAspect=0;image=data:image/png,iVBORw0KGgoAAAANSUhEUgAAAOEAAADhCAMAAAAJbSJIAAAAk1BMVEX///+hZv+dXv/TvP+ZVf/Rt//+/f+iZ/+gZP+fYv+bWv+eYP+cXP+aWP/byP+eYf/Vv//69/+6kv/u5f/gz//q3//Jq//Nsf/n2v/28f+ocv+lbf/AnP/z7P/t4/+yhP/Gpv/Os//ezP+2jP/ZxP/Cn/+0h/+sef/8+f/k1v+ufP++mP/Vvv+5kP+qdf/o3P+VTf/M0e2vAAAOUElEQVR4nO1d53riOhC1HYosWxhCC22BBFJgd3Pf/+kuTaM2ssVNsEyuz698MCg6VpumcRAEQfct/IFozxfBBUtKfPfmJsjo05lgk/ruyq1A4taJ4fRnjuARdHAk2Ap/LsPo4czw56JmeP/QGBLWkBCBVOP+EKEMSTuQ8fsiFXWD+wN0XmPYkoWaitCdoVkzNIXuDDVDROjOUDNEhO4MNUNE6M5QM0SE7gw1Q0TozlAzRITuDDVDROjOUDNEhO4M/1+GitADF/rtpY9fwwPKMAwfJHQf4/OH8WP34d4AndcZRjJi/mkc3R945/93Pu8fiJrh/aNmeP/4vtOiakeL7bRAD02XE79q6oHlxP+K1lY1FQ/X2r6ieVdNTf9+26JmWDZqhojQVS36R80QEbqqRf+oGSJCV7XoHzVDROiqFv2jZogIXdWif9QMEaGrWvSPmiEidFWL/lEzRISuatE/aoaI0FUt+kfNEBG6qkX/qBmqQj/eI/yjvPoowx8UmbExvGfUDO8fNcP7R83wjB9/Wvz8E//na22lat6/Ot1O30Ww//S5yPm6qrbFOqFplFKybuXL9fcRPYCM3t36UxWGi1l6LtBB0nbuOI5YdpaL4ien/lSE4SSDDTkkLIfioyg2QxoDl/5UhOFUEDT6ImOtVNNJ8dVYRYYPqdzxMBpZ5CZMkYt3Dv2pBkO9DFBkkRtpqhb7VdyfSjBcqEMThtSyiRhPYlzcn0owHKiT1NpSL9Hk4pfi/lSCYcdgiI5NMNGrdsXL4v5UgqHzGOoWT/xa3J9KMOwb6/ADF5xp6zBZFfenEgyNnlOL3EhbiPiTqCLDpnYerixyk4YiR0KH/lSDYdCWB5HEVqV6rOw17NmhPxVhuIgERcI+7YIv0mjTrUt/KsIw6LczmHo5BINgC/spWzn1pyoMg+D1onynln2UA3wUHbf+VIfh6rJPptaen7G7MKSoTmr2pzoM+UkQNfPl+KZktyKrypD7jzLL/nFBi281rGcTGf9zrr33z/r0g8ow5Kob+Zsr1ufnhc3C0lEdhkPe9STXFdVxexAC1WHY4sqp2EIWm+1uRtrTl9EApiTfkLK5a7uVYQjmLW9ms6NpFpMD4oRGj8Pzp3+5lKv7uUIM55cz/2zWDtpqjeqs8To5fNwzR7oAFWIIdjA9qKVzZtQ3zo4n5YYvQ+LabIUYggWfPr//RaN7bBssIQrk2myFGAa7y7CRpeI+lZC+wF8Wb7CJIoYuNWgfrhF2aOcwBXGCh6Hjf9CC6IZAUYTUpY4wzChcmLl2pqe7a+xwPivKiHLn+Oh17DPj13GUHs4M42M2vE+Gv3SPVMaWzc6ws4+07uBexDtgCDvlBYy/waE1Vg9HZgusVZ6hMogkkmzhfiiRv2YIK8YweBRLjhAldtaTThBnfcYPw+bvTWfwNOyjBmxPDKIeHHyHtzgQPKj2Mehsug/NsRaaK51hq5EeQClDT7RnODCYcaT/Ak8ixSKj78eGj+k0mju59POwxftJMIZcrQkjxNJfc/qoMx+CGppp/B06zVVF+Fu8IwnihYAABu7N5pZTmCK/nXCdXK3w4UEv5cuJTszvtjwukW6wn37QnK/5JCZT9fPyGfIoDEUcv6CYzvDf8kmMHRfc+NKD++Uz5Kc6MqefYIws8/0ZBMxpanNvlM8QerI3voLgWRr0npvj7hP0adJZ7efNIThLEbfx1OLeKJ8ht9LDzPiK7yRkt6fHjZ8mo1OvJo80TbIsojs+TRNjq4VsB332l89wwWeaEd4EZ29IIEW0fRDqRHxsif3Qh/GPtFPIg43PN9P4j/bFEHl9GGGPe93iOCLVecS8VT09wwNDvhAN1WSDWsCxaR0ewLTfgoqS6lFTDwzBgNAf9/gKVVFbbT3QlIzV7cMTxeNjuu651ROCcqB5ol5h4RopcT4YDmC9JYpe88fiYcOgnqYjmN/UOCi9eBNBv4xn0n/9UIaQJLrnQl2PsbQTj2EvSs1kKi8Mn6BH2V945s+KfZ/Go24kcSLsZU5lzqQBuukc5gRmbfvxCM+hrzEfi45MMGofFZPeH5h80fQg1hsr48rOysvTTHzYQHRdPwxbIn+GsNejW+lDygUijG8XvGUeF35fNSSP1GEUF5ulFOBIV9j/8sJQRHKPw0jb87U0ONEUHBzcXhAtD2fSaj3odam0OyVoHp+vuMVAzt8imdRtJtkGJsPDjmt7cWqCR4W9RWY2mC52JCgbtxjDoIn/MtrhPj1/sadOA4u/qEoAyjDoYKNI0XRhrwyDYWZqnA3V3sAZBh/GKBKGZxUHfuOHE+Nly0zzv1gYqkfLAenMHqnxGyHtZoriQvWBsDEM1srpmealUXmOAbdWUtplYiwlK8NgLx5Ne2xNRz39C78MD4c4ZECTttFTO0Nx9aIodcg7Q/CBYlHPHIYL4eNHfauAolrQN4/jg52BJXfnMBS54Tbn6gVQz/sL7wPGhd3C9zCEaD/zGIpnQ81075745zerOq9O+8mvQXe8X74ZXbHZ+w4MhxDkmOpftWg43T2Omp3PVjkMew1G0yjJYt1DFnyCzwYN6+YyFIkNTPdL9hghcZxENClrDCGvVw/8gX8FT67IZwi3L4zH88mjNG9HhtbsnG9kuLM44yHRyxKZz2cYzMEvqcWx+O5+yg3Tr/TdhOHWEjUBL6flikUBQzgxorX6BV/dp5zxtc3c+k6GHUtGIZ+9xNyCXBgGLxcm2kYMl2npae4b6u8NGIqwibJjwj5ju4FQxBDOGqosY/AYXEL6DzOHM+96KOfhFA1tCv8+TqCQIYRbE8UR3LZFRm4IeKrKnsl5W/PwChnydhXlFLQd6pyi+XXANJVXnJi7tiSuQoaw1zCxm0JSBsmuyFX6MuDgk2y5Lh8A/Bph4MAQVDdpJb9yRcBym/hGEG5ucZuH74T2ZNFihjxelUFWtDgczBjGTQEKKAn5hIKoPX5RMnBhyKOqYBsJB4f1JuqNINIO4/aZIqyhhvVZFzMUj+nciCBI4jJX4RHC7xC3T7mFcNHJbt85MOQL/BwyHQn/DSu45ff9eJdjFaOe2OlzcrYdGPJWjkkmnZmIkyclnoUcQ8mRH0X751d76hCHA0Ou1pDdI0mly8T229I3RFNWgTOIqVC7r9OB4QScGbGsfaZOBae+HVtUy4+QFL4LHBgGaGi8UXCZ+GbYYxkzbbu8C8M303AgqEukHGzNuJHNcjrChaF5SYMYXo0y0TTupOUZAC4M9VoZYTr1swY5+n81exSvT3KGC8OHSG2O2opMlYffIZV3hzz92IWhSH4/zIe0sbXvWyWi8xJRiMjk9d6F4QdnGLN4uSlX2c5B72MNGa85YQcXhjyxOH7sl62IFoBf+8WT1s9wYciti6RUa9AFfJe3205uDHmOfuJ/h9Gw5QxzTmcXhty/Xa5F7wKXWibX7DRFFUPKB9QyyYk6ujAcOMj4Afew5D17F4ZcJm/H8gOIHH/xxOe3rtzvr5cFrouYVydMmbwiGHy255iZngAntf3K62IPFRTsuhjPnTZik97BPd5WR1T/pSFqoTfmNn2Mhy7YrTr6n/HOreEM9ai0Vop+HiZ6jJDLZQUPyiO4Yoreee3qV/APW0kb20u41xUvZeoX3KmPbIJPU+z6DKFL07blx2GemekLfBM0+rZ4MYvTXAaKbfXlCKpR5Y5DKfStOmpaI4redOLLUTsauSOK+nVdoBCxP9mu64TqAiRZpg5oOpP9TO/ctWXeZqwA+G1C6SLiUPPiEDqbz2faZ2wp9iaud+P1dn2DW4iwEN+16lDkMl4fM3XjiemKDzvPY6me3n2gs+AWIvcJN6nqGEwyUNYeEvWriFsk4lbp6/iKgie3x3C0yxhsKCeV0hgotpVUgd6cqe77dHq6aiOc6HFE29vc0qfl4X3dZok8HQ/TdLFk9sV2Qt+QeFmAs+fyUcZ2VRjIdRJpxx2Zjag2QjNEfxnoo5yOQh0x++PbofjRRtQVoi1AW/J9M9UEzabC7Kslx76IlU1dkYfBakcEvT0rvmhKX31ERy94wfRNBYTtcisI/doVP6Nk5s1W3BXe1k7bOe7TM57bha0QTyHgYKl0jWRRqt/1bYwdPPOtNdM0V8poqih3JPMSoNnLUzRhs31zs5Y/Ouz/jv06LEeZT2PR62/2cqJCGPswiOXrWAndnueR9M4AVaUuwPBNPJuLTtrayKdJZJZOuTUm4t8TNue73QaUkuxKzXIDM1ykUK+lS7Plx/L/wNoh8l16GMToyh5BdFv2X0x2oj5KTgbETSDy2kTq3hEDyDzFSmO5tNdQjgaR0ZJ7Z+8GeIHcRKIygVqJ2VUmHtwxSLSksS2kEJU7iOKFR3pVADEY9IqHLmoWGDXD4JGVmQQtVWYx3Z4r6GzD2TBo5lTCgC3Nvdbwd4BPKiTjWRRYIJGjKjIQixo59+AKQJl53uB1wpx+Q9HfnBw3Cc8iyxG7LwUXSq6oVPtldP45Xl6LCTFurx2xElt86KAzd6UCmWhobhfH2bE6LyvTjur1Bw/b1ynFU7wgCfxwZhTWJpXygDM8bjUKl9vm8y8vpnALt9x6wqlB8nIzDphI6hpyN7qykAuZsbxK1htJLyOWNzxWEwNJLT+VoUPx+SY9CVLmRvINkLaPoxmFrcYPxdtGrHeJqgqZYhizt65ycLSGYzWlMU4qGIopgFrOhaR0Nx70J63jNtx8CaniYQ2TWSWyLK/EZ6L60UiSUsZO98BjzftkrUZTcUymbnUFY+rXJfoVrNDCQyoIW97jDOV4wlziCj8Hf2PFsdZdjCo/UpFX1H8FvVGS4nM1oX83Fct0/o947741Ii0+ESc03d6XEpOPRXOXsTTK4vhkCbF4OapI9PMb0Tqc9Nv945/5aj3472n4/wLIHQFmdMho7gAAAABJRU5ErkJggg==;" vertex="1" parent="1">
          <mxGeometry x="549.21" y="169.29" width="109.59" height="109.59" as="geometry" />
        </mxCell>
        <mxCell id="VcpDIT1148hxlzCa1aZ3-6" value="&lt;b style=&quot;font-size: 15px;&quot;&gt;Amazon&lt;br&gt;Glue Crawlers&lt;/b&gt;" style="text;html=1;align=center;verticalAlign=middle;resizable=0;points=[];autosize=1;strokeColor=none;fillColor=none;" vertex="1" parent="1">
          <mxGeometry x="530" y="117" width="120" height="50" as="geometry" />
        </mxCell>
        <mxCell id="VcpDIT1148hxlzCa1aZ3-7" value="" style="shape=image;verticalLabelPosition=bottom;labelBackgroundColor=default;verticalAlign=top;aspect=fixed;imageAspect=0;image=data:image/png,iVBORw0KGgoAAAANSUhEUgAAAOEAAADhCAMAAAAJbSJIAAAAk1BMVEWhZv8jLz6laP8aLDEhLjtuTrAYLC4VKyofLjgdLTUZLDCoaf8WKyxoS6YdLTYRKiUQKiSUYOtAOmpaRZGFWdSYYvGQXuWdZPlTQoc5N1+BV84pMUdzULhKPnllSqJ6VMM9OWYwNFJdRpY0NVeKW9xWQ4tQQYImMEJHPXVvTrIyNVVlSqMsMkyIWth8VcYMKR8AJxOFKAyKAAASiklEQVR4nO1daZuiPLPWEAgQZFEBRQX3Zcbl/f+/7kgqoJCgdrdgz3O458NcV6OSopJa7lSKTqdFixYtWrRo0aJFixYtWrRo0aJFixYtWrRo0aJFixYtWrRo8f8QKMOnB/JugFDeKUqmaq+nTqfJKQj/M5Ii2vHOve3KdgmxNFO5wtQ04rhkse2dvQ79p6W8SnfqzTHRFB3jbhlYVzSC5+q684/qElF/ujfIVThBtqKYRN+ew39PldQ/zC3tsXS5lLam9ach/fSYvwCEor1j6iU5sG4bRroODVuYtFjXzO3wX1Ek9Xs7Yhd0dF1w2uTPfLZZxn//xoNR/8/OdCzFxoVPkeO08w/ISP2NpeC7cWuOMouTtd+hlGbukNJO6A3V0cIl5t1Mxpoe/3YZqbe5GPmQseksRtMglUz24aukneCwt8ntiWCFxP4vlhGFA2LciTdWvade/SrlMD6S/LFgRfu1ekToYCqZfPZVPP9Vy4Hoerkjei4jTn6lXaXDo4bzubZdf82No85wlisSk/7vm6qoM3Kz8Zl67H9DCdQbaNmK1C31l4lIh7tsgip277vrCIWxxtcxtsa/So1omSnQcJbhD0ZG/dGFr0ddOf+a1YjCsZYtoM1PnzwN9gSeFnYH7xnfj0HXmD927bh+w2OnZ4NPVXP1k/nwNlCVz1CdxO8ZDwpnDvykjYPPi0hjl1uYP8Hb1g1NNJ3HcdGnFyMaERiKs3nn00Z+H5Y2vhw+LOKeD4RM3zwQtOQz1VE/KSLqm7BeJu9fLzThNtX9oIhoD25eGddh81DQhSzT6X1KRLqFKWr26/l9FP4Bt+G+ewm8CDqy2P2t7asKRF9mhFdcxOQTToP2wIqSwQt3T7N6b5gcevFgGffUZO2hirS4hLEClnrdvIgoAT9obZ7NIET9aLnfXYAQTskoM2WEV4PEeyFEnxuQj/nvGfbrQAFEMubs8SARWsdjy5KwptjQnMkmeirkivl+/c/7xv4awh0bsjF/NEBEvXjiKNWkKTaIuTk9nq78TsqsWWtD+2zy6KsHn0EompN78VLCNONL74X885BERJ7FPk2mTS5FqjIrg+2wemAoWTj6TQ6LOIv9dhCrV2Oz3R8dYt3IJws/SprREG5GvDpEqUDggCseVo6LRguCc+m01TIKOujGl6JOcF6uNItzwtjU1WoZ6ZTdTl80p0S0gHlTGWsgr+9kjIumbSJf4hqucvrnEcmSCOs4rFxodMt8hhY3tRRRzGIZY18poOpyVt8g++TB5tn1StLnFCt2ZtWxH3+kwY/H/ho8Nmlwt+Iy8scWl++y8Z5xpld7u+HPw8CVyWBwAcPWjBLpXH+0COlQgQHrZPQaqUi9LdDB2F1WPA/aY9OmGY4RnZlpM7by0dMerEBM5t7LT5wGc7BL1rzCOiPm+B8Z7zeii5mBrBjJDKJV3f4aM0+nNlOjMakg68B8K4P65ylS2XwhZ/lAeEpszb/KKmarV9dP0m/SJbOnTv1OMWTxiN6XP0ueCrjfYd1QzEJdXLXA2b6xXbE43gcUMyW5a9nFcAGJgFnt2h6BRmxrBxOpiGhqNaJEtHGv0ZYtD4NXzIjqxndJGxQYzJ5Y0h9AR/zAwr0PyB8oitT10j6bonqVrXjlx70JE1GXZYMoYUpsIDyl/lL2HOkSLEX3RwbdZyLKs0E0SZWoVPnMd0IWhvGcX/74vwCfGRRpNghKxMrPbvBteMxlY02+BiGhuKUW1WQUClg66EizQaZEq9FEMQfEHF0nkuUQoXc+xNv9+KgbhqEf57NRfDh7oZyLQpHLfIZkqaNeutJxQ9FpEbTHFqG2LN0cIW86WtjEMpW0EAqg67ZiWkRfDRJfIiRlqYu+kojvs5XgSF1VzYCYSh8XRoXQablzNFtSl8iWLDY09xgHQvaB5qnXsXoS4WfpFeVNu3hfAaQbRcoPddTJrUymClhx/iRlRfomTpe0xGYxQgNPGpeQpxsFrogmXa0kXjZLy38mi1IMhA7pnDck9hS8/gem6QRi1ftHm+3GgwsxTOJoBp6kwIblENO459suJd4crdKLktAQLY2mXGLhtlOWblzugg3Uz6ujdIVo/cF06PshxAJh6PvD6WCuESXn4kgpKzq5XXl4f2LTVGaF6gRiGaNxR+8jYBvTINyaq7LSvbQ+MeiNcz71MixcptvUpDgn8V7sC1azHD8PNcy7uyLgqbE1eVjchpDf28FqtUu0FjPO5T+mX2GiaxXZaU2ARWMU5hkjjvAkos+cM6Vn9jTwpPT3PVOiEGWjs8ZuVp+ESABdM1/oFgZzgTna3Z4fFeJfL51nYFoF5o79qsSk+Bp7HrWFNSdVwKHPsoHChELcUWDdIvM48mkxEoUyYT+K5yQrdsfHkizMxWIsjAD8hVsXI4V6F0UAM4hWYZcWJm5mSy1z0h/0kiiKhimu/ye9QX+iWTdbKtpNMNBEiHNhIZJhpx4gNXcCJa9tFB4qmtnFy7qhaJqVQdMUo7ShKK6skNkaIRNFh5RGUeoiTisltEeFkYBj/goUIQpltkZCWq4Jk7xpCa2o+Lkp46uw9iwuTaNvoIIF+48SNk3F6ZjqFo9rMjWo55ol8JKX0sqPmIscR4MVSY9VyOTE2L5GO+NlxEI+IkZofqosSR6Rfh7v6hFQYksPG5vJUhoH27zB9tWE+lFvu9AI0dje7/WfbRtpqQIxV5veMEQoNCqMI9vD04VtdMRst1NbVCN4Q5Z2C34Lhn3hX6GdYJio8WC0ne1n29EgPiSnvNzEY5GmIa4rNEgXMxH+PLLlOq8JaJs+Ua1s1IEWu2ci+FmZ7ODM7QKf0BIJ2UIUMiWgMkoLv0ZQWEVlUgVS4vIwkH8YqCU2FYyS1DYyq6mVy6FAcK0xOioEgq+8imCGmYciq5G4pmE6xSHzjE9GTISu9ApTuuhd6gKsIiFMhKlkFJenBzsvF68Q/sA0l6mEppmSqF2WIhqNJcFsJulCloPOlvB3NABnqs/vi9ToHyx3e1loKni+gElYY3ZRBJsy9ki43VrMxek4O0nh9G+HKSlQPDLjz5g1kXYCCd9adA0Q86bUOCYV6RpbQxjfr0+ImUFGskh4/QyjQLEh281hfkFML7yKh/pTDP/2ZJjpMnd4BYusC345q2aEiMbq/mV1DGsoeDp6FQ4R62UrxjLE9wem13hNzJuy1Eli2NBYXF5o62Cc5xRYcUbra4oPlSm6ZMMDpRvbYt0l6LAGCStibibhX+F2lCm35MyQOsH9o5VHqQYZJ3F2lMsUGQu2dS8Qw8x8v3+WPpRQYrpRrEicWRrUoGSVH6bs6maeZukL4TeYUxV4tZps6WMJxdvxUEX2pNOqTEcXf8UUtnVYBGrKJXy7P6xah0wFMkGGEG5WlBWtZxexsLbMrIG3MMqWhu1d1JDkV9hSFnOJHj9PGaoSVerFXaukyLKPo6m1Ekg4HpfWUL0v9YfIZ6qSkHuQP1kPSmw757lb4ADKBDBN0398LM9dtdncArGNMCHyrkw6Ct+l3nJ3J2K5Lo8FA/q8LCGbNs3lh/RYIQhlqfgz+p0mjNBhfTKMEu3NOadyeAahen05vjBExhuKPBI39c8MAjgVvT/eEXdfGjQwpkI0wWKJ+niaiiHKHCLkT0/cFqckPNoJhQJhuCYuOLY66+LaJAASQtzQk+VPIpi57FYciAH+vhzqwK7U+wPvSrAkX0aVQf7058k6tJlDkD4G4Ou65UkaSefu+yDmT0wLEovCWPlnBUxhdVzAo6LyZj4sC6uufYtO2BO3ntgevqSqgDmCJ8WSQXUUDWSWWTZV8EQvtVVDe/8rc94mbP+JHhHyp8cPGwGrJK2P8dm2pOCHWCQhhAHvAxxEkECkkh5QTLfPsI0kaQQGoYsYLZ3q4jA4KiUU6ybk+VPpMxCfiAUJ2RakwB6AE6qRLa2UsOuWpxM47Me5ON1XxidDdiehfg+ouRprMbz/VWdQ0vn0uJCQpoqSHmzgdWSCn/XcSuP7HviCLb1aU8aDYqtsNSF/0qtPiSIaGfJwgRcqdLVDeZKqz6f+DyFNoXR5iTmwaBZeroX+j+l+1FpdscowWdwD0xdrwm7B+CN1bajHEoRLac1QXq6ADWLv1cjrwM5TJ/SCaLqc503MTJHHQhFToRjuBtI4pwHAKZPyDlmU86NYVyyimcZuZ5qaRYh1V7gn0hQdXgooluXzhKX5+lIEJ8vKJ3VR71LgYmSll13dEo/a85Nq12dWvkI+VHzJnzkuG3F63pVrTEuwHdkBqdwnGUURgaL5SJ03L6EV5inqTBeOaculxLZF9rK2S7wqXhQRMWfY3OboPaDQTqxkv3qEQJ3tnHTh5ZXsWE+7z5LFKJH2LKUDKFURRITniM06BamGD4ZRchqBdRKODsvtfHWc2OlR/MV8GyfrsOLMBYKT2xgDG67M8ytUHsg1BJTAuEhFiw5eptDhzP6Dw88QrmHN38CejZJpEUVEamCbAj9RjpWfdRtCa6gPdxKEeHeYTIuwCus/gFiNBZxWxj/pSYcCmO1mGuVmHX5Ai9n5w6ZOrEvgw7YZxpLNzheBAkiobTDKaHunRSDRP6nCDjrxU9zGd9vl0CFnDHY8zEEzLRORnwMWqLdGgc68+Nn5XodVenD5I8ojh3yiziHZUAR3VCNkBTBg6K8ifsuib3hzO/POWGVa1MGONXMeH+7srSRLnk55D0Vt9dXFSIMj7MGWrDHlIjI02KOGqpYiI3tpwnua6Jr6lTa7qBPzU0R62VChm4hN9cW4wu9fxyPsSqegw1fasQjfiiZgY7rKQnA2NxGV5jwFUDOObOsMeXy2pe1YXuqGidB6n3WzsfayD8ygUQMubyXWB3SGU81igQjDLO++c1/eVfVb9K5uQZH39EF7EFFpzhnSERy9P8qvTvO3Buhk9ejkE6KeuiB3py5kKuzctGg1uOUENIPRl6cHbJ3yuWqS/tSTdVGi18SqT4olGYr8B3MtWgJnWRs8SN61ijvSZGfmQ9dNp7s5ByHPKtL/Ov5wujXJ7Q0RWBGSpQJuIjalxawMj1R0p0Kdnnb/igRDc8zjar7fLpfb/fgPJlbhpQimMR0QrsWKG2YiPu1i+C7QGEZU2VwUhbFdYGngnLrB3t9RZKisbu86aXlI80yLpDkRISF80AU3ZWmenubGBhlDzz36VItww/KJ2vqAxrB0nOo2aldXt9w5SsWB/JRGdSbLdWZrcxHnFb/WuIi8H02XPIqzWfNLhZQJN3a82+irwb2R/X1aDI9gC63HLT4RDU+H0Yo4xNI0IL1dZb45rIV3ID0Vsd+8iKBFZfWMumA1cOsomU6nyfnEiDbp5v2ziZqJ2FieyDtDdW18eumWCFWIluFlLTaXCo95VncRd5C+Bbr8bVrszHiTRO1Nr9zIRazqoZ2J2FgnTJq1h9fN97TdpsvHAVwmottYwk+nXERM+q+3SqwEQio/efJEi7iB/nvZmILsJTO6s/zpu5potMhZi0otziF5q2j8VwNur9zoKt3pT95mSE/ju64v1VqEI1RNbpXmr9xI+RmhZ9DLvxLss3Sfv9ilKl8MCbRTaXAb6i7pTVOFb7zMEKFhP6czDD1ju+VaRGqaaGCz0Y02lCjZoRNsKqP1115myPKQ/L1k7sy/uX7p74TK00L59wN1lrkOsO0s1Kc9hG/fHG5InktyHvJxdAOF8lbT70yg3uyuSblCxmnq8JRr60SDu6Zg2NQOYI8fisgPGjf/7jK67t8dacKKsxsl6RtxZQNJGZtw3euTuywZa3ft2R9NVH5AurHzzneg671zl9djWyPd/jJZhx1U6MkeBpG6WRl33bDS2ppuoTX7Ay1CWZhZrntrBjTYWEWCJi29cPVFfzYaLOPlYLPdj7FLLMW4T/6x4Y6TUrzwQIusVqO5s0EloHA6Fl76kL5LNn03QtocUnyXrE30QSBO5iot8qoFt/H3etxGQIN44T552/FNe8TcVhRpVmiRsjb0NZZ7v4K0VmiuFNaZTLrrOl0so+p+WVIt8qIi8xOGpoCrrRzGfSdtUSNoE6dclOXuRlPvsUO58ajZuSFEY5aTiuWnH8HVbgbn3nY+MVMiytJSWBZxjON8cBjKXgtRRqZFXeulH7/6zxVEdLL+nx9C6h86ob8ens9JivMw8MMKLylBJiJWrNV20MfZbnHjL9d5AZk//OLXsomaLtu89PauYuM/ADQQTkHoygdeclUjqFo83461xfcrr34nUDAn90F9/OkB1QA0nLlpxzDTcna/+u3kPwDtnKZqTz1Lorv/Dr5jiVu0aNGiRYsWLVq0aNGiRYsWLVq0aNGiRYsWLVq0aNGiRYsWvwn/B2BLFDXJOa7HAAAAAElFTkSuQmCC;" vertex="1" parent="1">
          <mxGeometry x="530" y="387" width="148" height="148" as="geometry" />
        </mxCell>
        <mxCell id="VcpDIT1148hxlzCa1aZ3-8" value="&lt;b style=&quot;font-size: 15px;&quot;&gt;Amazon&lt;br&gt;Athena&lt;/b&gt;" style="text;html=1;align=center;verticalAlign=middle;resizable=0;points=[];autosize=1;strokeColor=none;fillColor=none;" vertex="1" parent="1">
          <mxGeometry x="564" y="567" width="80" height="50" as="geometry" />
        </mxCell>
        <mxCell id="VcpDIT1148hxlzCa1aZ3-9" value="" style="shape=image;verticalLabelPosition=bottom;labelBackgroundColor=default;verticalAlign=top;aspect=fixed;imageAspect=0;image=data:image/jpeg,/9j/4AAQSkZJRgABAQAAAQABAAD/2wCEAAoHCA8REBAPERISDw8PEhEQDw8QEhkaEg8QGBMZJhwTGhkbIS0kGx0sJRkYM0UlKi4xNDQ1GiQ6PzozPi82NDEBCwsLEA8QHRISHTkrISozPjQzMzE+MzEzNTExNT4zMzMxMzMxMTMzMzMzMzMzMzMzMzMzMzUzMTQzMTEzMTMzM//AABEIAOEA4QMBIgACEQEDEQH/xAAbAAADAAMBAQAAAAAAAAAAAAAAAQIDBgcEBf/EAEMQAAIBAgEFDAYJBAEFAAAAAAABAgMRBAUGEiExExQzQVFTYXFzk7LRByIygaGxI0JDUnKCkZLBFjRiwhUXNWOj0v/EABoBAQADAQEBAAAAAAAAAAAAAAABAwUCBAb/xAAxEQACAQIFAgQEBQUAAAAAAAAAAQIDEQQSITFRcfATQWHRIjLB4UKBobHxBRUjkZL/2gAMAwEAAhEDEQA/APPjMXV3Wr9JPhKmrdJfffSYd+Vudqd5LzJxvC1e0qeNmI+rjFWWh6T0b8rc7U7yXmPflbnKneS8zzDJyrgHo35W5yp3kvMe+63OVO8l5nnAnKuAenfdbnKneS8w35V5yp3kvM84xlXAPRvqrzk+8l5j33V5yfeS8zzjGVcE2M++6vOT7yXmPfdXnJ95LzMADKuAZ991ecn3kvMe+qvOT7yXmYBjKuAZ991ecn3kvMN91ecn3kvMwATZcA9G+6vOz7yXmPfdXnZ95LzMAxZcCxn33V52feS8x76q85P98vM84Cy4Fj0b6q85P98vMe+qv35/vl5nnGLLgWPRvqrzk/3y8w31V5yf75eZgGMq4FjNvqrzk/3y8x76q85P98vMwDGVcCxn31V5yf75eY99Vecqfvl5mETJSXBJue6T+9L9zAxAY5RY0PG8LV7Sp42YjLjeFq9pU8bMJqx2RaMYgOgUMkYAxiAAoZIwSUMkYAxiAAoBDJAFEgAWAhgkBiAAoZIwCgEMAYMQ2SgbgBIGNcpNExvDVe0qeNmEy43hqvaVPGzEasflRYgGIDoDGIAChkjAGMQAFDJGCSjPg8LUrTVKlBznLVGKtrsuV6kulnnNlzB/vl2VT+CutNwpykvJESdkT/R2UObj3kfMw4nNfHUoSqTpJxgnKejNNqK2uyd37jdM5s5JYKdKMaUam6RlJuU3HRs9mxn0cNjHXwSruKi6tGUnFO6jeL1X4zLeNxEYxm4rK+vuV55WuchASGbJaBRIAFgIYJAYgAKGSMAoGIGSgbgAAYxSaHjeGq9pU8bMBmxvDVe0qeNmA1Y7IsRYElHQAYgAGMQAFDJGAe3JeT6mJrRo07aUru8naMYpXcmbP/0/xHPUv0l5HhzA/v49lU+SNmzyzhxGDnRjR0LVISlLTi27qS2a1ymfXrV/GVKlba+v5nDbvZHwMZmPiqdOVRVKdTQi5OMdJSkktdrq1zy5k4iFPGwc5KKlCcIyk7LSdrK/Fex0DJ2LnXwEK07adSjKUrKyvZ7EcfWxdRGHnOvCpTqP0079BFt3TOx4/J+DxDjKtCFSUE1FylsT4tTFi6uHw+FnFSjTpU6cowWls9V2itd2+g47boGvccr+mOyTqNpeVvu/2Hh+pa2AJMDULCgEMACiQALAQwSAxAAUDENhA3EAAxyk0HG8NV7Sp42YDNjuGq9pU8bMRqR2XQsQDJGdgsCSgAGIABjPVk/J1fEz0aFOdSS9rRXqx/FJ6o+9m0YL0f4iVnVq06XRBOcl1+yviympiKdP55W743Icktz5GaWUKWHxkKlV6EHGcHO11FyWpu3Ff5nRquWclzs5V8LO2xzlB2/U+PR9H+EXt1a03yJwivC38T208ysnLbTnPplVl/q0ZWJq4arPM3K+2i9yuTizJjc4cn06FRRrUpWhKMKdJpttp2iorZ8jlCOtRzTybH7CP5qk385Hw878k4KjhJToU6cainBJxd5Wb18ZZg69GEskM3xPzt9GTCSWhj9HmBozhiKlSEJyjOMIucU9GOjfVfZt+BslTF5NjN0pSw0aikoODjDSU3sVrbdaPi+jXgcT2sfAgxuaFWpjJYpVYKEq0aug09Kya1X9xVXUJYiaqSaXl7EStmdzJn3gKEcJusacIThUilKEUnaV007bUc7OnZ//ANhLtKfzNZzYzXp4zDyqzqTpyjUlCGiouLioxd2mr7W+PiPTgq0aeGzTelzqDtG7NXGbjicway4KvTl0VIyj8VpGuZSyPicNw1OUY3sqi9aD/MtS6nZntp4ilUdoyT74Z2pJ7HiAQy8kCiQALAQwSBRIwgbiAAY5SaBjuGq9pV8bMRlx3DVu0qeNmA1I7LodliAZJIDJGdAsCSgSdlzYjQWCobhbQdOLk1tdS3rOX+V73PBlmWW7y3tHD6H1dB3qW6d0tH9DTsyMub2r7lUdsPXajJvZCpsjPoXE/c+I6JlvH1MNQlXhS3fc3epDS0WqfHNOzvbk5L69RgVacqNe1lLNtf1+vkUNWZz7HSy79pvxcu5KSX/q1HxMRVxP2sq/Tusp/wCxv1H0g4R+3SrwfQoNeJP4Htp565Oe2rKH4qU/9Uz2KvWhvR/5/hnSb4OU3T17Rqx1v+pclz21qb/HCS+cQ/5fJL+1wvvUf5R3/cKnnSl3+RPiPg5vkfLmIwjm6MopTtpwmrxbWx9D1vYfW/rvH/8Ag7t//RuX/L5IX2mF90Y/whf1HkuGyrSX4YS/iJRKupu7oNvv0Ivf8JoOUsu43GwjCWuEZaWhSpu0pcTe1vazJkynlemtHDwxMIXuo6ElTvy2ktE3eeeeTlsqyn+GlP8AlI8lXP3CL2Kdeb/DBL4yv8DtVquXLGhZcPb6XF3wXkmWXLrdY4fRv6zrNKdujctV+tGxYzctynu2juWi910/Y0ba734j5+b+Vp4ynKs6O40tLRpty0nUttexWSerj1p8hqefmW90nvOm/UpNOs19aotkOpfPqPH4Uq1bI4qLW9vL9d/qc2bkai7Xdr2vqvttxXAQH0BeUAhkgCiQALBiBhEm5gIDGKTQMdw1XtKnjZgM2O4at2lXxswmrHZdDsZRBRJKKEAwAGSM6AzqeZGW1iqDw9V3r0IqMr691o7FLXtfE/c+M5YezJWUJ4avCvD2oPXG+qUX7UX0Nfw+I82KoKtTy+fl1+5zKN0fSzsyI8HiGop7hVvOi+RX1w643XuaPiHXcp4SjlPApwa+kiqtCb2wqJbH8U11nJKtOVOcoSi4yhJwlF7YyT1pnGDxHiwtL5lo/f39RB3RIxAew6KGSMAZ9HIeTJYvEQoq6T9apNfUprbLr2JdLR846pmrkmOBwrqVbRqzjuteT+zildQ/Kr36WzzYvEeDTut3ouv2/exzKVkZM4spQwGEUaSUZuO44eC+rZe11RXxa5TlTk222222223dtvjbPo5wZWli8ROs7qC9SjB/VprZ73tfX0HzSMHh/Bhr8z379P3uTFWRQyRnqOhjEABQCGSAGIbCJNzAQGKec5/juGrdpV8bMJmx3DVu0q+NmE1o7LoWoYCGSBlEDALEAwSBRAzoG5ZgZc3GrvSo/oq8vo29kK3J1S2dduVnu9IWQ9mOpx+7DEJfpGp8k/y9JoCfu5GtqOtZq5Whj8LKnVtKrCO5YiL+vFqynbkkr+9MzMVF0aixEekl33fqVyVnmOTjPp5xZIng8TOi7uD9ejN/Xpt6vetj6r8Z8s0YyUkpLZlgxiPZkvATxNaFCn7U3bStqhHjm+hLyJbSV3sDZMw8ibtV31UV6VCS3NPZOttT6o6n125Ge7P/AC3swVN/dniGv1jT+Tf5eVn38pYqjkzApQS+jjudCPHOq09b+Lb6zk9WrKpOU5Sc5Tk5yk9spN62ZuHTxFZ1pfKtI9969DhfE7skYgNM7KGSMElDJGAMYgAKAQMlA3QAAxSk59juGrdpV8bMJmx3DVu0q+NnnNaOy6FhYCGSBgIYBQyBgm5YgGAB9PIOVZYPEU60buK9WrBfXpvbHr2NdKR8sYlFSTT2YOu5yZMhlDBqVJqU1HdsNNbJXXs35JL42fEclaabTTTTaaas01tTXEzoPo1yhOUK2Fl60KVqlNvbDSfrQ6r6/ezX8+6EIY+porR04wqSS2Ocr3fvt+tzOwjdKpLDvVLVd963OI6Oxrx1HMfIu9qG+Ki0a1eKk76tzo7VHXsb2v3LiNBzaoQqY3DQmlKMqkdKL2Ssm7Po1G++kHKE6OFjTp6t8TdOcuNU1G7iuvUuq51jZSnKNCP4t+gnrojTc7MtPGYhuL+gpXhRXKuOf5rfokfDEB7oQUIqMdkdpWKGSM7AxiAAoZIwSUMkYAwYA9hKBugABilJz/HcNW7Sr42ecz47hq3aVfGzAa0dl0LEBRIEgsZIwBgIYBQyCgSUIAANx9HOMpU8RWhOcabqwioabSUpKXspvj17Ohm4ZazVwuLqbtUdWNTRUXKnJK6WzVJNcZyGlBzlGCtecowV9l27I2fH5FypgKDqvEOnSi4x0aGIqrXJ2XqpJHgxFD/Kpxnlk9CtrW9zccmZm4PD1YVoyrTnTd4upKNk7bbRir7T4npJxlKSoUYyjKpCc5ThFpuK0betbY+joPi5KwWVMoU5yhiakoQkoTjVxNSzbV/Z1o+Hj8HPD1Z0amjp05aM7O8b2T1P3kUcO/GzTqZpR8u/VhLXVmEYgNIsGMQAFDJGAMYgAKGSMElDewkb2EoG6gIDFKTn2P4at2tTxswGbH8NW7Wr42YDVjsuhYUAhnQAokACwEMAYCGAUevJ2TcTiZSjQpyqyik5aNkop7LttJbH+jPEbTmVnHDBTnTqx+hruLdSKvKnJX1tccdfWukrqynGDcFd8BvTQxYPNbKUatKUsPJRVSm29OGpKSu/aN49IX/b6naUvEbDTrRnTVSnKNSMo6UJKXqyTWp6Svq6TnOe2cNapF4Kph3h5KalNylpacU/VcWkk4t8fRblMqnVqYmtBtL4X00/Nlabk0fV9GHAYntY+BHxM483sdVxuIqU8PKUJzvGSlGzWitetnnzPzgqYVzoxovEbvKLhCLtPTS4tTurfpa51TDzm4KVSKpzavKKlpKPRpWVzrEVKmHryqJL4uf5Dbi7nFsfkjFYZRdelOlGTspSs4uVtl02r9HQeI3PPjOWliFvShacITU51vqylG9ow5Vr9r9OU0w08POc4KU1ZlkXpqAxAXEjGIAChkjAGMQAFDewkfESiUbsAgMUpOe4/hq3a1PGzAZ8dw1btanjZ5zVjsuhYUMkZ0CgEMACiQALAQwBgIYB9/NrOavgZaOuph5O9Sk3svtnF/Vl0bHx8q6NiKGCyrhlJPTjr0KkdVShO2tdD2XT1PV0HGj6GSMrV8JU3WjLRb1ShLXCpHklHj+a5Tx4nCZ3nhpPnnr7nMo31Oo5EyHhcm0p1ZyjKaX02JmtG0fuxV3ox2ar3erbqNMzqzunitKhQ0qeG2SeyVZf5fdj/jx8fIvlZczixONcd1ajCGuNKF1TUvvO7bcul7OK2s+SRh8K1LxKrvL9F3/peQjHzYxkjPedlgSUAAxAAMYgAKGSMAY+IQ+IlEo3YBAYhQc9x/DVu1qeNmAzY/hq3a1PGzCa0dl0LAGAjokoZIwCgEMACiQALAQwBgIYBQyCgSUIBgAMkZ0CwJKAAYgAGMQAFDewkfEESjdwEBilBzzH8NW7Wr42YTNj2t3ra/tanjZ57rlRrR2XQsLAm65UO65UdWAxiuuVBdcqFiShkXXKO/SLAsCb9I7rlJsBlE3XKF1yiwLAm65R3XKLAoBXXKF1yiwLGRcd0LEliFdDuhYkYxXQ9JE2BQEaSHdCwKGTdBpIWBQ+Um47qzJSBvADuIxbFBixHCT/ABy+bMaGBWiAAAJAAAAAMAAAEAADBAAAwACQMAAEggAAAGhAAUAASgAwAABoAAAAAlA+4AAeU5P/2Q==;" vertex="1" parent="1">
          <mxGeometry x="190" y="398.5" width="125" height="125" as="geometry" />
        </mxCell>
        <mxCell id="VcpDIT1148hxlzCa1aZ3-10" value="" style="shape=image;verticalLabelPosition=bottom;labelBackgroundColor=default;verticalAlign=top;aspect=fixed;imageAspect=0;image=https://nightingalehq.ai/knowledgebase/glossary/what-is-aws-redshift/amazon-redshift.jpg;" vertex="1" parent="1">
          <mxGeometry x="150" y="617" width="205" height="115.31" as="geometry" />
        </mxCell>
        <mxCell id="VcpDIT1148hxlzCa1aZ3-11" value="&lt;b style=&quot;font-size: 15px;&quot;&gt;Amazon&lt;br&gt;Glue&lt;/b&gt;" style="text;html=1;align=center;verticalAlign=middle;resizable=0;points=[];autosize=1;strokeColor=none;fillColor=none;" vertex="1" parent="1">
          <mxGeometry x="212.5" y="337" width="80" height="50" as="geometry" />
        </mxCell>
        <mxCell id="VcpDIT1148hxlzCa1aZ3-13" value="" style="shape=image;verticalLabelPosition=bottom;labelBackgroundColor=default;verticalAlign=top;aspect=fixed;imageAspect=0;image=https://2.bp.blogspot.com/-3d3U9jpT-dI/WSHzct3o_uI/AAAAAAAAATc/SbJBfXzhMOEOV3BtoqONyaqA5ZVZSkXsgCLcB/s1600/AAS%2Blogo.png;" vertex="1" parent="1">
          <mxGeometry x="158.5" y="837" width="188" height="145.15" as="geometry" />
        </mxCell>
        <mxCell id="VcpDIT1148hxlzCa1aZ3-14" value="&lt;b&gt;&lt;font style=&quot;font-size: 15px;&quot;&gt;Analysis&lt;/font&gt;&lt;/b&gt;" style="text;html=1;align=center;verticalAlign=middle;resizable=0;points=[];autosize=1;strokeColor=none;fillColor=none;" vertex="1" parent="1">
          <mxGeometry x="400" y="887" width="90" height="30" as="geometry" />
        </mxCell>
        <mxCell id="VcpDIT1148hxlzCa1aZ3-15" value="&lt;b style=&quot;font-size: 15px;&quot;&gt;Amazon&lt;br&gt;Redshift&lt;br&gt;&lt;/b&gt;" style="text;html=1;align=center;verticalAlign=middle;resizable=0;points=[];autosize=1;strokeColor=none;fillColor=none;" vertex="1" parent="1">
          <mxGeometry x="387.38" y="647" width="80" height="50" as="geometry" />
        </mxCell>
        <mxCell id="VcpDIT1148hxlzCa1aZ3-18" value="" style="endArrow=open;endFill=1;endSize=12;html=1;rounded=0;entryX=0;entryY=0.5;entryDx=0;entryDy=0;exitX=1;exitY=0.5;exitDx=0;exitDy=0;" edge="1" parent="1" source="VcpDIT1148hxlzCa1aZ3-4" target="VcpDIT1148hxlzCa1aZ3-5">
          <mxGeometry width="160" relative="1" as="geometry">
            <mxPoint x="210" y="257" as="sourcePoint" />
            <mxPoint x="880" y="377" as="targetPoint" />
          </mxGeometry>
        </mxCell>
        <mxCell id="VcpDIT1148hxlzCa1aZ3-20" value="" style="endArrow=open;endFill=1;endSize=12;html=1;rounded=0;exitX=0.5;exitY=1;exitDx=0;exitDy=0;entryX=0.5;entryY=0;entryDx=0;entryDy=0;" edge="1" parent="1" source="VcpDIT1148hxlzCa1aZ3-5" target="VcpDIT1148hxlzCa1aZ3-7">
          <mxGeometry width="160" relative="1" as="geometry">
            <mxPoint x="720" y="377" as="sourcePoint" />
            <mxPoint x="880" y="377" as="targetPoint" />
            <Array as="points">
              <mxPoint x="604" y="307" />
            </Array>
          </mxGeometry>
        </mxCell>
        <mxCell id="VcpDIT1148hxlzCa1aZ3-21" value="" style="endArrow=open;endFill=1;endSize=12;html=1;rounded=0;exitX=0;exitY=0.5;exitDx=0;exitDy=0;entryX=1;entryY=0.5;entryDx=0;entryDy=0;" edge="1" parent="1" source="VcpDIT1148hxlzCa1aZ3-7" target="VcpDIT1148hxlzCa1aZ3-9">
          <mxGeometry width="160" relative="1" as="geometry">
            <mxPoint x="720" y="657" as="sourcePoint" />
            <mxPoint x="880" y="657" as="targetPoint" />
          </mxGeometry>
        </mxCell>
        <mxCell id="VcpDIT1148hxlzCa1aZ3-22" value="" style="endArrow=open;endFill=1;endSize=12;html=1;rounded=0;exitX=0.5;exitY=1;exitDx=0;exitDy=0;entryX=0.5;entryY=0;entryDx=0;entryDy=0;" edge="1" parent="1" source="VcpDIT1148hxlzCa1aZ3-9" target="VcpDIT1148hxlzCa1aZ3-10">
          <mxGeometry width="160" relative="1" as="geometry">
            <mxPoint x="720" y="657" as="sourcePoint" />
            <mxPoint x="880" y="657" as="targetPoint" />
          </mxGeometry>
        </mxCell>
        <mxCell id="VcpDIT1148hxlzCa1aZ3-23" value="" style="endArrow=open;endFill=1;endSize=12;html=1;rounded=0;exitX=0.5;exitY=1;exitDx=0;exitDy=0;entryX=0.5;entryY=0;entryDx=0;entryDy=0;" edge="1" parent="1" source="VcpDIT1148hxlzCa1aZ3-10" target="VcpDIT1148hxlzCa1aZ3-13">
          <mxGeometry width="160" relative="1" as="geometry">
            <mxPoint x="720" y="657" as="sourcePoint" />
            <mxPoint x="880" y="657" as="targetPoint" />
          </mxGeometry>
        </mxCell>
      </root>
    </mxGraphModel>
  </diagram>
</mxfile>
